# xmcd CD database file
#
# Track frame offsets:
#	151
#	14590
#	29185
#	42422
#	57389
#	73024
#	86113
#	102054
#	114431
#	130221
#
# Disc length: 1947 seconds
#
# Revision: 1
# Processed by: cddbd v1.5.1PL0 Copyright (c) Steve Scherf et al.
# Submitted via: CDex 1.50beta10
#
DISCID=8f07990a
DTITLE=Los Pasteles Verdes y 7 Grandes Idolos de La Balada Romántica - 100 años de Musica (DIMSA)
DYEAR=2004
DGENRE=Romántico
TTITLE0=Los Pasteles Verdes - Esclavo y Amo
TTITLE1=Karina - Ahora Te Puedes Marchar
TTITLE2=José José - No Me Dejes Solo
TTITLE3=Yaco Monti - Un Adios
TTITLE4=Los Pasteles Verdes - Mi Amor Imposible
TTITLE5=Gualberto Castro - Sabor A Mí
TTITLE6=Los Angeles Negros de Germaìn - Murio La Flor
TTITLE7=Enrique Guzmán - Me Quedaría Contigo
TTITLE8=Lupita D'Alessio - Un Amante Como Yo
TTITLE9=Los Pasteles Verdes - El Reloj
EXTD=YEAR: 2004
EXTT0=
EXTT1=
EXTT2=
EXTT3=
EXTT4=
EXTT5=
EXTT6=
EXTT7=
EXTT8=
EXTT9=
PLAYORDER=
